<?xml version="1.0" ?><!DOCTYPE svg  PUBLIC '-//W3C//DTD SVG 1.1//EN'  'http://www.w3.org/Graphics/SVG/1.1/DTD/svg11.dtd'><svg enable-background="new 0 0 77.945 77.945" height="77.945px" id="Layer_1" version="1.1" viewBox="0 0 77.945 77.945" width="77.945px" xml:space="preserve" xmlns="http://www.w3.org/2000/svg" xmlns:xlink="http://www.w3.org/1999/xlink"><g><g><g><g><g><path d="M0,38.973C0.001,17.448,17.448,0,38.972,0l0,0c21.523,0,38.973,17.448,38.973,38.974l0,0       c0,21.522-17.447,38.971-38.973,38.973l0,0C17.448,77.943,0.001,60.496,0,38.973L0,38.973z M12.131,12.131       C5.262,19.002,1.013,28.488,1.013,38.973l0,0c0,10.483,4.249,19.971,11.117,26.842l0,0       c6.871,6.869,16.356,11.117,26.842,11.117l0,0c10.484,0,19.971-4.248,26.842-11.117l0,0       c6.871-6.871,11.117-16.357,11.117-26.842l0,0c0-10.483-4.246-19.972-11.117-26.843l0,0C58.941,5.26,49.457,1.014,38.972,1.014       l0,0C28.487,1.014,19.002,5.26,12.131,12.131L12.131,12.131z" fill="#010101"/></g></g></g><g><g><polygon points="38.231,61.238 38.231,16.706 39.431,16.706 39.431,61.238 38.231,61.238     "/></g><g><polygon points="16.847,38.444 16.847,37.244 61.096,37.244 61.096,38.444 16.847,38.444     "/></g></g></g></g></svg>